HIERARCHY
ROOT Hips
{
	OFFSET 0.000000 0.000000 0.000000
	CHANNELS 6 Xposition Yposition Zposition Zrotation Yrotation Xrotation 
	JOINT LHipJoint
	{
		OFFSET 0.000000 0.000000 0.000000
		CHANNELS 3 Zrotation Yrotation Xrotation
		JOINT LeftUpLeg
		{
			OFFSET 1.363060 -1.794630 0.839290
			CHANNELS 3 Zrotation Yrotation Xrotation
			JOINT LeftLeg
			{
				OFFSET 2.448110 -6.726130 0.000000
				CHANNELS 3 Zrotation Yrotation Xrotation
				JOINT LeftFoot
				{
					OFFSET 2.562200 -7.039590 0.000000
					CHANNELS 3 Zrotation Yrotation Xrotation
					JOINT LeftToeBase
					{
						OFFSET 0.157640 -0.433110 2.322550
						CHANNELS 3 Zrotation Yrotation Xrotation
						End Site
						{
							OFFSET 0.000000 0.000000 0.000000
						}
					}
				}
			}
		}
	}
	JOINT RHipJoint
	{
		OFFSET 0.000000 0.000000 0.000000
		CHANNELS 3 Zrotation Yrotation Xrotation
		JOINT RightUpLeg
		{
			OFFSET -1.305520 -1.794630 0.839290
			CHANNELS 3 Zrotation Yrotation Xrotation
			JOINT RightLeg
			{
				OFFSET -2.542530 -6.985550 0.000000
				CHANNELS 3 Zrotation Yrotation Xrotation
				JOINT RightFoot
				{
					OFFSET -2.568260 -7.056230 0.000000
					CHANNELS 3 Zrotation Yrotation Xrotation
					JOINT RightToeBase
					{
						OFFSET -0.164730 -0.452590 2.363150
						CHANNELS 3 Zrotation Yrotation Xrotation
						End Site
						{
							OFFSET 0.000000 0.000000 0.000000
						}
					}
				}
			}
		}
	}
	JOINT LowerBack
	{
		OFFSET 0.000000 0.000000 0.000000
		CHANNELS 3 Zrotation Yrotation Xrotation
		JOINT Spine
		{
			OFFSET 0.028270 2.035590 -0.193380
			CHANNELS 3 Zrotation Yrotation Xrotation
			JOINT Spine1
			{
				OFFSET 0.056720 2.048850 -0.042750
				CHANNELS 3 Zrotation Yrotation Xrotation
				JOINT Neck
				{
					OFFSET 0.000000 0.000000 0.000000
					CHANNELS 3 Zrotation Yrotation Xrotation
					JOINT Neck1
					{
						OFFSET -0.054170 1.746240 0.172020
						CHANNELS 3 Zrotation Yrotation Xrotation
						JOINT Head
						{
							OFFSET 0.104070 1.761360 -0.123970
							CHANNELS 3 Zrotation Yrotation Xrotation
							End Site
							{
								OFFSET 0.000000 0.000000 0.000000
							}
						}
					}
				}
				JOINT LeftShoulder
				{
					OFFSET 0.000000 0.000000 0.000000
					CHANNELS 3 Zrotation Yrotation Xrotation
					JOINT LeftArm
					{
						OFFSET 3.362410 1.200890 -0.311210
						CHANNELS 3 Zrotation Yrotation Xrotation
						JOINT LeftForeArm
						{
							OFFSET 4.983000 -0.000000 -0.000000
							CHANNELS 3 Zrotation Yrotation Xrotation
							JOINT LeftHand
							{
								OFFSET 3.483560 -0.000000 -0.000000
								CHANNELS 3 Zrotation Yrotation Xrotation
								JOINT LeftFingerBase
								{
									OFFSET 0.000000 0.000000 0.000000
									CHANNELS 3 Zrotation Yrotation Xrotation
									JOINT LeftHandIndex1
									{
										OFFSET 0.715260 -0.000000 -0.000000
										CHANNELS 3 Zrotation Yrotation Xrotation
										End Site
										{
											OFFSET 0.000000 0.000000 0.000000
										}
									}
								}
								JOINT LThumb
								{
									OFFSET 0.000000 0.000000 0.000000
									CHANNELS 3 Zrotation Yrotation Xrotation
									End Site
									{
										OFFSET 0.000000 0.000000 0.000000
									}
								}
							}
						}
					}
				}
				JOINT RightShoulder
				{
					OFFSET 0.000000 0.000000 0.000000
					CHANNELS 3 Zrotation Yrotation Xrotation
					JOINT RightArm
					{
						OFFSET -3.136600 1.374050 -0.404650
						CHANNELS 3 Zrotation Yrotation Xrotation
						JOINT RightForeArm
						{
							OFFSET -5.241900 -0.000000 -0.000000
							CHANNELS 3 Zrotation Yrotation Xrotation
							JOINT RightHand
							{
								OFFSET -3.444170 -0.000000 -0.000000
								CHANNELS 3 Zrotation Yrotation Xrotation
								JOINT RightFingerBase
								{
									OFFSET 0.000000 0.000000 0.000000
									CHANNELS 3 Zrotation Yrotation Xrotation
									JOINT RightHandIndex1
									{
										OFFSET -0.622530 -0.000000 -0.000000
										CHANNELS 3 Zrotation Yrotation Xrotation
										End Site
										{
											OFFSET 0.000000 0.000000 0.000000
										}
									}
								}
								JOINT RThumb
								{
									OFFSET 0.000000 0.000000 0.000000
									CHANNELS 3 Zrotation Yrotation Xrotation
									End Site
									{
										OFFSET 0.000000 0.000000 0.000000
									}
								}
							}
						}
					}
				}
			}
		}
	}
}
MOTION
Frames: 7
Frame Time: 0.008333
-0.933406 18.825110 19.751724 178.202939 -1.666228 -145.199278 34.691825 10.543359 2.044665 -60.232999 -31.753530 -20.066377 5.830656 4.899310 13.059519 -0.156494 -14.955489 -44.635939 1.880200 -8.612000 -24.588800 -39.275022 -11.691643 3.730751 61.871659 32.636555 -20.957291 -6.387921 -4.846161 13.131976 -0.516556 13.239640 -46.431362 -0.236800 3.131500 -8.645200 -4.172754 -1.214263 -27.236947 3.804895 -1.220335 -15.511628 -2.446514 -2.405937 20.436434 -13.568401 -5.014298 -3.797991 12.944235 -12.706862 51.706828 0.637800 -3.643600 8.283900 18.677547 -5.709335 2.301062 -111.387157 -5.089349 1.412637 11.172718 -4.199748 -0.468594 1.264945 -0.107669 27.441419 23.880495 -5.065366 -2.360900 -7.125000 0.000000 0.000000 -2.965600 23.855600 1.514800 -11.642238 5.381367 2.930736 104.633865 0.706359 -16.617862 -12.449468 15.649418 -1.213127 -3.239533 -4.009556 31.156429 -17.129933 -62.008646 13.936800 7.125000 0.000000 0.000000 83.627200 -77.957800 -71.248400 
-0.930058 18.825493 19.745506 178.224931 -1.864191 -145.523009 34.759229 10.499274 2.036753 -60.368421 -31.513185 -19.711720 5.841708 4.850447 13.039093 -0.265654 -15.201462 -44.598750 2.030700 -8.929700 -25.575600 -39.303720 -11.579873 3.715169 62.099820 32.508020 -20.441061 -6.391738 -4.773300 12.922099 -0.736190 12.918995 -46.591166 -0.223300 3.041600 -8.394600 -4.289967 -1.318310 -27.335693 4.166100 -1.230290 -14.662711 -2.690150 -2.378610 20.263069 -14.655576 -5.008646 -3.747213 15.153974 -13.624711 51.277134 0.997200 -3.712300 8.255300 18.746054 -5.677500 2.304822 -111.351972 -4.582285 1.260857 11.769291 -5.082809 -0.512841 1.246749 -0.120205 26.703594 23.929415 -5.623691 -2.585900 -7.125000 0.000000 0.000000 -2.930300 23.285200 1.535200 -11.468129 5.247320 2.838291 104.645700 0.449286 -16.047389 -12.654038 15.863496 -1.249049 -3.125187 -4.081563 30.110617 -16.434505 -62.083386 13.387100 7.125000 0.000000 0.000000 83.784100 -77.720000 -71.146100 
-0.922883 18.828171 19.735365 178.228103 -2.195331 -146.194891 34.894326 10.402895 1.990018 -60.702806 -30.995441 -18.912487 5.865126 4.714735 12.859795 -0.433343 -15.583783 -44.471828 2.040900 -8.950800 -25.641700 -39.378855 -11.308731 3.681248 62.491935 32.402310 -19.428928 -6.389298 -4.691541 12.598042 -1.332046 11.862150 -46.919404 -0.227500 3.070300 -8.474600 -4.551921 -1.590261 -27.444340 4.652188 -1.338162 -13.395128 -2.544753 -2.420386 20.302213 -13.858956 -4.547514 -2.565882 14.358266 -12.586811 48.379649 0.926100 -3.446300 7.677600 18.570214 -5.761863 2.180857 -111.375068 -4.325801 1.100906 12.334377 -5.905935 -0.554374 1.211252 -0.130600 25.814680 23.344876 -6.482655 -2.844300 -7.125000 0.000000 0.000000 -3.353700 22.436700 1.822900 -11.662135 5.126932 2.631654 104.617667 0.499894 -15.770053 -12.681614 15.904310 -1.263187 -3.086324 -4.147048 29.223356 -16.721868 -62.198808 13.637400 7.125000 0.000000 0.000000 84.279100 -77.814200 -71.743000 
-0.919822 18.829893 19.730486 178.216227 -2.286364 -146.729895 34.924265 10.359086 2.090471 -60.915222 -30.649950 -18.409307 5.878703 4.636402 12.753456 -0.543506 -15.821761 -44.361000 1.942100 -8.744400 -24.998900 -39.398199 -11.381282 3.433732 63.059927 31.209688 -18.491353 -6.464642 -4.434296 12.092082 -1.160934 12.366389 -46.612757 -0.252500 3.233100 -8.928300 -4.628839 -1.687670 -27.492362 4.902759 -1.442586 -11.992106 -2.814934 -2.407224 19.582553 -14.956633 -5.076523 -3.979204 15.797552 -13.886484 50.778607 1.088300 -3.742600 8.187600 18.605950 -5.508745 2.215443 -111.305438 -3.775757 0.937212 12.833172 -6.626442 -0.591286 1.169493 -0.165230 24.970525 22.668624 -7.594738 -3.158700 -7.125000 0.000000 0.000000 -3.846200 21.355700 2.186300 -11.397906 5.038829 2.568858 104.626061 0.351734 -15.582616 -12.746631 15.962088 -1.243040 -3.051005 -4.158262 28.440601 -17.189561 -62.113931 14.000300 7.125000 0.000000 0.000000 84.143900 -77.972000 -71.779400 
-0.919917 18.830085 19.731060 178.243507 -2.270643 -146.744059 34.940497 10.394397 2.114023 -60.930316 -30.587443 -18.415290 5.881298 4.634054 12.765079 -0.607671 -15.926104 -44.308472 1.856500 -8.560500 -24.429900 -39.361132 -11.420438 3.388035 63.116429 30.977347 -18.443169 -6.484410 -4.387290 12.002870 -1.064407 12.576540 -46.522878 -0.261000 3.287000 -9.079000 -4.736248 -1.743315 -27.483087 5.133194 -1.389518 -12.081380 -2.743862 -2.396103 19.826090 -14.452766 -4.882432 -3.232245 15.292659 -13.423830 49.376236 1.007700 -3.664900 7.887900 18.532238 -5.598670 2.221615 -111.411016 -3.482423 0.818990 13.257476 -7.262290 -0.630526 1.140710 -0.149205 24.194352 22.111371 -7.784147 -3.139000 -7.125000 0.000000 0.000000 -4.231400 21.204500 2.420900 -11.527801 5.011150 2.529402 104.641696 0.299851 -15.400450 -12.793388 16.036299 -1.269777 -2.991277 -4.195399 27.789482 -16.837588 -61.553676 13.624500 7.125000 0.000000 0.000000 81.379500 -77.867400 -68.920400 
-0.919917 18.829415 19.729434 178.228057 -2.264724 -146.805226 34.960427 10.400560 2.089020 -61.033850 -30.462733 -18.305380 5.877934 4.613171 12.734953 -0.633647 -15.992771 -44.296388 1.879200 -8.609800 -24.582200 -39.362133 -11.375397 3.412369 63.080756 31.043073 -18.387546 -6.490320 -4.377211 11.972288 -1.116648 12.504549 -46.600487 -0.236200 3.127700 -8.634300 -4.855923 -1.789038 -27.524473 5.291388 -1.356964 -11.974373 -2.700841 -2.392129 19.931436 -14.367808 -4.746671 -2.839311 15.193883 -13.196421 48.609968 1.018800 -3.608600 7.737000 18.487952 -5.642444 2.235993 -111.497599 -3.207430 0.723162 13.657132 -7.879483 -0.670771 1.118011 -0.112335 23.443874 21.722823 -7.401641 -2.940000 -7.125000 0.000000 0.000000 -4.487800 21.628000 2.525300 -11.581438 4.977855 2.501244 104.669594 0.212287 -15.175729 -12.859413 16.125225 -1.297073 -2.916242 -4.218606 27.165346 -16.269407 -60.744186 13.040600 7.125000 0.000000 0.000000 77.574400 -77.639200 -64.945300 
-0.921161 18.828650 19.727425 178.187126 -2.274294 -146.873073 34.949646 10.385213 2.078821 -61.124596 -30.369873 -18.207694 5.873699 4.600223 12.717218 -0.644782 -16.022049 -44.276177 1.842200 -8.529400 -24.334100 -39.377239 -11.372025 3.429312 63.084887 31.003212 -18.310979 -6.498395 -4.361493 11.951294 -1.118140 12.532572 -46.626057 -0.233500 3.109800 -8.584700 -4.838337 -1.749471 -27.610265 5.145749 -1.366550 -11.794304 -2.626897 -2.382803 20.051974 -14.235068 -4.590595 -2.410508 15.202396 -12.985470 47.754543 1.037800 -3.540000 7.573500 18.485351 -5.673449 2.247668 -111.539023 -2.959858 0.617954 14.052538 -8.490000 -0.725194 1.111140 -0.099990 22.713039 21.824512 -7.476968 -2.983400 -7.125000 0.000000 0.000000 -4.409300 21.546500 2.489100 -11.586802 4.956229 2.456523 104.764169 0.161627 -15.116200 -12.918112 16.219604 -1.313759 -2.888178 -4.216278 26.580514 -16.592725 -60.005344 13.181000 7.125000 0.000000 0.000000 74.276300 -77.682200 -61.812800 
